<svg xmlns="http://www.w3.org/2000/svg">
  <symbol id="check-circle" viewBox="0 0 20 20">
    <circle cx="10" cy="10" r="9" fill="currentColor" opacity="0.12"/>
    <path d="M6 10.5l2.5 2.5L14 7.5" fill="none" stroke="currentColor" stroke-width="1.8" stroke-linecap="round" stroke-linejoin="round"/>
  </symbol>

  <symbol id="chevron-down" viewBox="0 0 16 16">
    <path d="M3.5 6 8 10.5 12.5 6" fill="none" stroke="currentColor" stroke-width="1.6" stroke-linecap="round" stroke-linejoin="round"/>
  </symbol>

  <symbol id="upload" viewBox="0 0 24 24">
    <path d="M12 16V4M8 8l4-4 4 4" fill="none" stroke="currentColor" stroke-width="1.6" stroke-linecap="round" stroke-linejoin="round"/>
    <path d="M4 16v3a2 2 0 0 0 2 2h12a2 2 0 0 0 2-2v-3" fill="none" stroke="currentColor" stroke-width="1.6" stroke-linecap="round" stroke-linejoin="round"/>
  </symbol>

  <symbol id="file" viewBox="0 0 24 24">
    <path d="M7 3h7l4 4v13a1 1 0 0 1-1 1H7a1 1 0 0 1-1-1V4a1 1 0 0 1 1-1z" fill="none" stroke="currentColor" stroke-width="1.6" stroke-linejoin="round"/>
    <path d="M14 3v4h4" fill="none" stroke="currentColor" stroke-width="1.6" stroke-linejoin="round"/>
  </symbol>

  <symbol id="close" viewBox="0 0 24 24">
    <path d="M6 6l12 12M18 6L6 18" stroke="currentColor" stroke-width="1.8" stroke-linecap="round"/>
  </symbol>

  <symbol id="globe" viewBox="0 0 24 24">
    <circle cx="12" cy="12" r="9" fill="none" stroke="currentColor" stroke-width="1.6"/>
    <path d="M3 12h18M12 3c2.5 2.5 3.8 5.7 3.8 9s-1.3 6.5-3.8 9c-2.5-2.5-3.8-5.7-3.8-9s1.3-6.5 3.8-9z" fill="none" stroke="currentColor" stroke-width="1.6"/>
  </symbol>

  <symbol id="map-pin" viewBox="0 0 24 24">
    <path d="M12 21s7-6.4 7-12a7 7 0 1 0-14 0c0 5.6 7 12 7 12z" fill="none" stroke="currentColor" stroke-width="1.6" stroke-linejoin="round"/>
    <circle cx="12" cy="9" r="2.4" fill="none" stroke="currentColor" stroke-width="1.6"/>
  </symbol>

  <symbol id="search" viewBox="0 0 24 24">
    <circle cx="11" cy="11" r="7" fill="none" stroke="currentColor" stroke-width="1.7"/>
    <path d="M20 20l-4.3-4.3" stroke="currentColor" stroke-width="1.7" stroke-linecap="round"/>
  </symbol>

  <symbol id="locate" viewBox="0 0 24 24">
    <circle cx="12" cy="12" r="3" fill="none" stroke="currentColor" stroke-width="1.6"/>
    <path d="M12 2v3.5M12 18.5V22M2 12h3.5M18.5 12H22" stroke="currentColor" stroke-width="1.6" stroke-linecap="round"/>
  </symbol>

  <symbol id="phone" viewBox="0 0 24 24">
    <path d="M6.5 3h3l1.5 4.5-2 1.7a13 13 0 0 0 6 6l1.7-2L21 15v3a2 2 0 0 1-2 2C10.6 20 4 13.4 4 5a2 2 0 0 1 2-2z" fill="none" stroke="currentColor" stroke-width="1.5" stroke-linejoin="round"/>
  </symbol>

  <symbol id="mail" viewBox="0 0 24 24">
    <rect x="3" y="5" width="18" height="14" rx="2" fill="none" stroke="currentColor" stroke-width="1.5"/>
    <path d="M4 6.5l8 6 8-6" fill="none" stroke="currentColor" stroke-width="1.5" stroke-linejoin="round"/>
  </symbol>

  <symbol id="arrow-right" viewBox="0 0 24 24">
    <path d="M4 12h16M14 6l6 6-6 6" fill="none" stroke="currentColor" stroke-width="1.8" stroke-linecap="round" stroke-linejoin="round"/>
  </symbol>

  <symbol id="users" viewBox="0 0 24 24">
    <circle cx="9" cy="8" r="3" fill="none" stroke="currentColor" stroke-width="1.5"/>
    <path d="M3 20c0-3.3 2.7-6 6-6s6 2.7 6 6" fill="none" stroke="currentColor" stroke-width="1.5" stroke-linecap="round"/>
    <path d="M16 4.5c1.5.3 2.7 1.7 2.7 3.3 0 1.6-1.1 2.9-2.7 3.3M19 14c2 .5 3.5 2.3 3.5 4.5" fill="none" stroke="currentColor" stroke-width="1.5" stroke-linecap="round"/>
  </symbol>

  <symbol id="clock" viewBox="0 0 24 24">
    <circle cx="12" cy="12" r="9" fill="none" stroke="currentColor" stroke-width="1.6"/>
    <path d="M12 7v5l3.5 2" fill="none" stroke="currentColor" stroke-width="1.6" stroke-linecap="round" stroke-linejoin="round"/>
  </symbol>

  <symbol id="shield" viewBox="0 0 24 24">
    <path d="M12 3l7 3v5c0 5-3 8.5-7 10-4-1.5-7-5-7-10V6z" fill="none" stroke="currentColor" stroke-width="1.6" stroke-linejoin="round"/>
    <path d="M9 12l2.2 2.2L15.5 10" fill="none" stroke="currentColor" stroke-width="1.6" stroke-linecap="round" stroke-linejoin="round"/>
  </symbol>

  <symbol id="bike" viewBox="0 0 24 24">
    <circle cx="5.5" cy="17" r="3" fill="none" stroke="currentColor" stroke-width="1.5"/>
    <circle cx="18.5" cy="17" r="3" fill="none" stroke="currentColor" stroke-width="1.5"/>
    <path d="M5.5 17l4-7h4l3 7M9.5 10H8M13 6h3l2 4" fill="none" stroke="currentColor" stroke-width="1.5" stroke-linecap="round" stroke-linejoin="round"/>
  </symbol>

  <symbol id="store" viewBox="0 0 24 24">
    <path d="M4 9.5 5 4h14l1 5.5" fill="none" stroke="currentColor" stroke-width="1.5" stroke-linejoin="round"/>
    <path d="M4 9.5a2.5 2.5 0 0 0 5 0 2.5 2.5 0 0 0 5 0 2.5 2.5 0 0 0 5 0" fill="none" stroke="currentColor" stroke-width="1.5" stroke-linejoin="round"/>
    <path d="M5 9.5V20h14V9.5M9.5 20v-5h5v5" fill="none" stroke="currentColor" stroke-width="1.5" stroke-linejoin="round"/>
  </symbol>

  <symbol id="utensils" viewBox="0 0 24 24">
    <path d="M7 2v8a2 2 0 1 1-4 0V2M5 10v12M9 2c0 3-2 4-2 7M9 2v7" fill="none" stroke="currentColor" stroke-width="1.5" stroke-linecap="round" stroke-linejoin="round"/>
    <path d="M17 2c-2 0-3.5 2-3.5 5s1.5 4 3.5 4v11" fill="none" stroke="currentColor" stroke-width="1.5" stroke-linecap="round" stroke-linejoin="round"/>
  </symbol>

  <symbol id="cart" viewBox="0 0 24 24">
    <path d="M3 4h2l2.4 12.2a2 2 0 0 0 2 1.6h7.6a2 2 0 0 0 2-1.6L21 8H6" fill="none" stroke="currentColor" stroke-width="1.5" stroke-linecap="round" stroke-linejoin="round"/>
    <circle cx="9" cy="21" r="1.4" fill="currentColor"/>
    <circle cx="17" cy="21" r="1.4" fill="currentColor"/>
  </symbol>

  <symbol id="bag" viewBox="0 0 24 24">
    <path d="M6 8h12l1 13H5z" fill="none" stroke="currentColor" stroke-width="1.5" stroke-linejoin="round"/>
    <path d="M8.5 8V6a3.5 3.5 0 0 1 7 0v2" fill="none" stroke="currentColor" stroke-width="1.5" stroke-linecap="round"/>
  </symbol>

  <symbol id="box" viewBox="0 0 24 24">
    <path d="M3 7.5 12 3l9 4.5-9 4.5-9-4.5z" fill="none" stroke="currentColor" stroke-width="1.5" stroke-linejoin="round"/>
    <path d="M3 7.5V17l9 4.5 9-4.5V7.5M12 12v9.5" fill="none" stroke="currentColor" stroke-width="1.5" stroke-linejoin="round"/>
  </symbol>

  <symbol id="smartphone" viewBox="0 0 24 24">
    <rect x="6" y="2" width="12" height="20" rx="2.5" fill="none" stroke="currentColor" stroke-width="1.5"/>
    <path d="M10.5 18.5h3" stroke="currentColor" stroke-width="1.5" stroke-linecap="round"/>
  </symbol>
</svg>
